<svg width="206" height="40" viewBox="0 0 206 40" fill="none" xmlns="http://www.w3.org/2000/svg">
<path d="M9.15531 32.4796V27.3569C9.15531 25.6131 8.82834 24.9591 7.84741 23.9237L2.6703 19.0191C1.03542 17.5477 0 16.0763 0 13.079V6.92098C0 2.6703 2.94278 0 7.41144 0C11.9346 0 14.8774 2.6703 14.8774 6.92098V14.8229H9.3188V7.52044C9.3188 5.99455 8.77384 5.06812 7.52044 5.06812C6.26703 5.06812 5.72207 5.99455 5.72207 7.52044V11.6621C5.72207 13.406 6.04905 14.0599 7.02997 15.0954L12.2071 20C13.842 21.4714 14.8774 22.9428 14.8774 25.9401V33.079C14.8774 37.3297 11.8256 40 7.35695 40C2.83379 40 0 37.3297 0 33.079V24.5232H5.55858V32.4796C5.55858 34.0054 6.10354 34.9319 7.35695 34.9319C8.61035 34.9319 9.15531 34.0054 9.15531 32.4796Z" fill="#0F0F0F"/>
<path d="M25.7519 0.435965C30.275 0.435965 32.7274 3.05177 32.7274 7.30245V15.2044C32.7274 19.455 30.275 22.0708 25.7519 22.0708H23.1361V39.564H17.414V0.435965H25.7519ZM25.0979 5.44959H23.1361V17.0572H25.0979C26.3513 17.0572 27.0053 16.2398 27.0053 14.7139V7.79292C27.0053 6.26703 26.3513 5.44959 25.0979 5.44959Z" fill="#0F0F0F"/>
<path d="M36.8167 0.435965H44.2281L49.0783 39.564H43.5197L42.5932 30.4087H38.2336L37.3071 39.564H31.9665L36.8167 0.435965ZM39.814 15.3133L38.7785 25.5586H42.0483L41.0129 15.3133L40.4679 9.42779H40.3589L39.814 15.3133Z" fill="#0F0F0F"/>
<path d="M56.0657 13.8965H55.9567L56.0657 21.1444V39.564H50.8885V0.435965H57.0466L61.5697 22.3978H61.6787L61.5697 14.3324V0.435965H66.7469V39.564H61.7877L56.0657 13.8965Z" fill="#0F0F0F"/>
<path d="M71.6885 39.564V0.435965H91.6885C105.421 0.435965 114.086 8.06539 114.086 20C114.086 31.9346 105.421 39.564 91.6885 39.564H71.6885ZM79.5359 32.6975H91.6885C100.626 32.6975 105.912 27.6839 105.912 20C105.912 12.2616 100.626 7.30245 91.6885 7.30245H79.5359V32.6975Z" fill="#0F0F0F"/>
<path d="M118.734 0.435965H156.608V7.35695H126.636V16.0763H153.502V22.9428H126.636V32.6431H156.608V39.564H118.734V0.435965Z" fill="#0F0F0F"/>
<path d="M169.255 0.435965L181.517 13.951L193.833 0.435965H203.642L186.421 19.1826L205.168 39.564H195.086L181.408 24.4687L167.566 39.564H157.756L176.448 19.2371L159.228 0.435965H169.255Z" fill="#0F0F0F"/>
</svg>
