<svg width="154" height="14" viewBox="0 0 154 14" fill="none" xmlns="http://www.w3.org/2000/svg">
<path d="M9.88413 0.00202942C10.3855 0.00202942 10.8192 0.103492 11.1654 0.314377C11.5115 0.525262 11.8557 0.92714 12.1899 1.52796L18.805 13.5325C18.8726 13.6658 18.8826 13.7772 18.8507 13.8667C18.8169 13.9563 18.7174 14 18.5623 14H16.0237C15.8009 14 15.6457 13.9105 15.5661 13.7434L14.1516 11.171H4.76319L3.3825 13.7434C3.29297 13.9225 3.13778 14 2.92491 14H0.33062C0.153556 14 0.052097 13.9543 0.0182758 13.8667C-0.0155454 13.7772 -0.00361242 13.6658 0.0640301 13.5325L6.62336 1.52796C6.95759 0.92714 7.2799 0.525262 7.60418 0.314377C7.92648 0.103492 8.29453 0.00202942 8.71829 0.00202942H9.88811H9.88413ZM12.8783 8.83335L9.70508 2.97631C9.64937 2.88678 9.58172 2.83108 9.48225 2.83108H9.3589C9.26938 2.83108 9.19179 2.87683 9.13608 2.97631L5.99468 8.83335H12.8783Z" fill="#666666"/>
<path d="M33.3382 0.00197601C34.8741 0.00197601 35.9663 0.348145 36.6348 1.0385C37.3032 1.72885 37.6375 2.75343 37.6375 4.11225V5.24825C37.6375 6.39419 37.4047 7.29742 36.9352 7.96588C36.4676 8.63435 35.7097 9.05811 34.6513 9.24711L38.0712 13.4787C38.1388 13.5464 38.1607 13.6459 38.1269 13.7792C38.105 13.9144 37.9936 13.9781 37.8046 13.9781H35.2322C35.0551 13.9781 34.9437 13.9562 34.8761 13.9224C34.8084 13.8766 34.7428 13.811 34.6751 13.7215L31.5118 9.56742H25.054V13.5444C25.054 13.8329 24.9087 13.9801 24.6203 13.9801H22.4597C22.1473 13.9801 22.0021 13.8349 22.0021 13.5444V0.602801C22.0021 0.200925 22.203 0.00197601 22.6029 0.00197601H33.3382ZM25.0639 7.14025H32.7155C33.3959 7.14025 33.8734 6.99501 34.1519 6.70654C34.4304 6.41806 34.5757 5.97043 34.5757 5.36961V4.53402C34.5757 3.9332 34.4304 3.48755 34.1519 3.19709C33.8734 2.90861 33.3939 2.76139 32.7155 2.76139H25.3206C25.1435 2.76139 25.0639 2.83898 25.0639 3.0061V7.14025Z" fill="#666666"/>
<path d="M54.353 0.00198839C55.7238 0.00198839 56.7026 0.280516 57.2815 0.825635C57.8605 1.37075 58.1489 2.19639 58.1489 3.29657V4.25352C58.1489 5.36763 57.7252 6.21316 56.8677 6.7921C57.7809 7.32528 58.2484 8.18474 58.2484 9.3645V10.5224C58.2484 11.0556 58.1927 11.535 58.0694 11.9588C57.946 12.3826 57.757 12.7486 57.4805 13.051C57.202 13.3514 56.8458 13.5842 56.3882 13.7414C55.9307 13.8985 55.3756 13.9861 54.7071 13.9861H42.8339C42.432 13.9861 42.2331 13.7871 42.2331 13.3853V0.600822C42.2331 0.198946 42.434 0 42.8339 0H54.351L54.353 0.00198839ZM53.4955 5.81526C54.164 5.81526 54.6096 5.7138 54.8544 5.51485C55.0991 5.31391 55.2105 5.02544 55.2105 4.6355V3.95509C55.2105 3.54327 55.0991 3.24286 54.8643 3.04192C54.6315 2.85292 54.2515 2.75345 53.7383 2.75345H45.5635C45.3844 2.75345 45.3068 2.84297 45.3068 3.01009V5.81526H45.2949H53.4955ZM45.2989 7.99972V10.974C45.2989 11.1511 45.3884 11.2306 45.5555 11.2306H53.7522C54.2854 11.2306 54.6654 11.1292 54.8882 10.9422C55.111 10.7532 55.2343 10.4408 55.2343 10.019V9.26105C55.2343 8.84923 55.111 8.53688 54.8663 8.32599C54.6216 8.11511 54.164 8.0037 53.4955 8.0037H45.2989V7.99972Z" fill="#666666"/>
<path d="M65.7032 0.00198839C65.9917 0.00198839 66.1369 0.147219 66.1369 0.435695V13.5444C66.1369 13.8329 65.9917 13.9781 65.7032 13.9781H63.5426C63.2303 13.9781 63.085 13.8329 63.085 13.5444V0.447634C63.085 0.159159 63.2402 0.0119364 63.5426 0.0119364L65.7032 0V0.00198839Z" fill="#666666"/>
<path d="M86.6403 0.00197601C86.9527 0.00197601 87.0979 0.147207 87.0979 0.435682V2.39533C87.0979 2.70767 86.9427 2.85291 86.6403 2.85291H80.3695V13.5444C80.3695 13.8329 80.2243 13.9781 79.9338 13.9781H77.7513C77.4628 13.9781 77.3176 13.8329 77.3176 13.5444V2.85291H71.0468C70.7344 2.85291 70.5892 2.69773 70.5892 2.39533V0.435682C70.5892 0.147207 70.7444 0.00197601 71.0468 0.00197601H86.6403Z" fill="#666666"/>
<path d="M102.443 0.00197601C103.979 0.00197601 105.071 0.348145 105.74 1.0385C106.408 1.72885 106.742 2.75343 106.742 4.11225V5.24825C106.742 6.39419 106.51 7.29742 106.04 7.96588C105.573 8.63435 104.815 9.05811 103.756 9.24711L107.176 13.4787C107.244 13.5464 107.266 13.6459 107.232 13.7792C107.21 13.9144 107.099 13.9781 106.91 13.9781H104.337C104.158 13.9781 104.049 13.9562 103.981 13.9224C103.913 13.8766 103.848 13.811 103.782 13.7215L100.619 9.56742H94.1589V13.5444C94.1589 13.8329 94.0137 13.9801 93.7252 13.9801H91.5646C91.2523 13.9801 91.107 13.8349 91.107 13.5444V0.602801C91.107 0.200925 91.308 0.00197601 91.7079 0.00197601H102.443ZM94.1788 7.14025H101.83C102.511 7.14025 102.988 6.99501 103.267 6.70654C103.545 6.41806 103.691 5.97043 103.691 5.36961V4.53402C103.691 3.9332 103.545 3.48755 103.267 3.19709C102.988 2.90861 102.509 2.76139 101.83 2.76139H94.4354C94.2584 2.76139 94.1788 2.83898 94.1788 3.0061V7.14025Z" fill="#666666"/>
<path d="M113.68 0.00197601C113.968 0.00197601 114.115 0.147207 114.115 0.435682V8.40954C114.115 8.94272 114.161 9.39036 114.249 9.73454C114.338 10.0907 114.481 10.3692 114.684 10.5701C114.885 10.781 115.152 10.9262 115.496 11.0058C115.842 11.0953 116.266 11.1391 116.787 11.1391H122.322C122.845 11.1391 123.269 11.0934 123.613 11.0058C123.959 10.9163 124.226 10.773 124.427 10.5701C124.626 10.3592 124.773 10.0807 124.851 9.73454C124.928 9.37842 124.974 8.94471 124.974 8.40954V0.435682C124.974 0.147207 125.119 0.00197601 125.41 0.00197601H127.592C127.881 0.00197601 128.026 0.147207 128.026 0.435682V8.70995C128.026 9.66689 127.924 10.4806 127.725 11.161C127.524 11.8295 127.202 12.3746 126.757 12.7983C126.311 13.2221 125.732 13.5225 125.018 13.7115C124.305 13.9005 123.448 13.99 122.433 13.99H116.676C115.663 13.99 114.806 13.9005 114.103 13.7115C113.401 13.5225 112.822 13.2221 112.377 12.7983C111.931 12.3746 111.609 11.8295 111.396 11.161C111.185 10.4925 111.083 9.66888 111.083 8.70995V0.435682C111.083 0.147207 111.239 0.00197601 111.541 0.00197601H113.68Z" fill="#666666"/>
<path d="M136.612 0.00197601C136.901 0.00197601 137.157 0.0238601 137.37 0.0576813C137.581 0.103439 137.772 0.169092 137.927 0.290451C138.084 0.401862 138.228 0.557042 138.361 0.748033C138.484 0.937034 138.618 1.19368 138.751 1.51597L142.905 11.1053C142.961 11.2286 143.05 11.2824 143.186 11.2824H143.43C143.564 11.2824 143.653 11.2266 143.709 11.1053L147.863 1.51597C147.996 1.19368 148.129 0.937034 148.253 0.748033C148.376 0.559032 148.519 0.401862 148.686 0.290451C148.844 0.17904 149.033 0.10145 149.234 0.0576813C149.444 0.0119232 149.689 0.00197601 149.98 0.00197601H152.116C152.807 0.00197601 153.276 0.157157 153.521 0.469506C153.766 0.781855 153.877 1.31504 153.877 2.07303V13.5444C153.877 13.8329 153.72 13.9781 153.419 13.9781H151.382C151.092 13.9781 150.947 13.8329 150.947 13.5444V3.10955C150.947 2.97427 150.891 2.90861 150.791 2.90861H150.612C150.479 2.90861 150.389 2.96432 150.356 3.06379L146.323 12.0185C146.168 12.3746 146.001 12.6869 145.834 12.9316C145.666 13.1763 145.487 13.3773 145.298 13.5444C145.109 13.7016 144.889 13.8229 144.642 13.8906C144.397 13.9582 144.109 13.992 143.774 13.992H142.817C142.483 13.992 142.193 13.9582 141.948 13.8906C141.703 13.8229 141.481 13.7115 141.292 13.5444C141.103 13.3892 140.914 13.1763 140.758 12.9316C140.591 12.6869 140.424 12.3865 140.267 12.0185L136.236 3.06379C136.19 2.95238 136.113 2.90861 135.98 2.90861H135.801C135.689 2.90861 135.645 2.97625 135.645 3.10955V13.5444C135.645 13.8329 135.5 13.9781 135.21 13.9781H133.17C132.858 13.9781 132.713 13.8329 132.713 13.5444V2.07303C132.713 1.31504 132.836 0.781855 133.069 0.469506C133.314 0.157157 133.781 0.00197601 134.484 0.00197601H136.612Z" fill="#666666"/>
</svg>
