<svg width="138" height="19" viewBox="0 0 138 19" fill="none" xmlns="http://www.w3.org/2000/svg">
<path d="M13.5648 18.8373H12.0578C10.2564 18.8373 9.58204 18.0579 9.55542 16.7343C8.63848 18.0771 7.20982 18.9941 5.0624 18.9941C2.07495 18.9941 0 17.5137 0 14.9595C0 12.1037 2.01727 10.5449 5.84328 10.5449H9.26259V9.71374C9.26259 8.18156 8.16226 7.238 6.27514 7.238C4.57879 7.238 3.45184 8.04402 3.23592 9.25527H0.353464C0.674394 6.59023 2.93421 4.8924 6.41268 4.8924C9.89114 4.8924 12.1436 6.64051 12.1436 9.89713V15.4121C12.1436 16.1131 12.3861 16.3024 13.0014 16.3024H13.5648V18.8373ZM9.26111 12.6997H5.71018C3.93545 12.6997 2.94013 13.3741 2.94013 14.7688C2.94013 15.9282 3.90883 16.7343 5.46911 16.7343C7.83985 16.7343 9.26111 15.3071 9.26111 13.2366V12.6997Z" fill="#666666"/>
<path d="M19.8905 18.8357L14.6699 5.05494H17.7949L21.7244 15.7122L25.6273 5.05494H28.6932L23.4459 18.8357H19.8891H19.8905Z" fill="#666666"/>
<path d="M43.5368 16.3083V18.8373H42.0298C40.2285 18.8373 39.5541 18.0579 39.5275 16.7343C38.6105 18.0771 37.1819 18.9941 35.0344 18.9941C32.047 18.9941 29.9705 17.5137 29.9705 14.9595C29.9705 12.1037 31.9878 10.5449 35.8138 10.5449H39.2331V9.71374C39.2331 8.18156 38.1328 7.238 36.2457 7.238C34.5493 7.238 33.4224 8.04402 33.2065 9.25527H30.324C30.6449 6.59023 32.9048 4.8924 36.3832 4.8924C39.8617 4.8924 42.1141 6.64051 42.1141 9.89713V15.4121C42.1141 16.1131 42.3567 16.3024 42.9719 16.3024H43.5354V16.3083H43.5368ZM35.6778 12.6997C33.903 12.6997 32.9077 13.3741 32.9077 14.7688C32.9077 15.9282 33.8779 16.7343 35.4367 16.7343C37.8074 16.7343 39.2287 15.3071 39.2287 13.2366V12.6997H35.6778Z" fill="#666666"/>
<path d="M56.846 16.2817V18.8358H45.6519V16.2817H49.8107V2.73611L45.6519 4.11152V1.54409L49.2087 0.181983H52.7197V16.2876H56.8534L56.8474 16.2817H56.846Z" fill="#666666"/>
<path d="M72.3495 16.3083V18.8373H70.8425C69.0412 18.8373 68.3668 18.0579 68.3401 16.7343C67.4232 18.0771 65.996 18.9941 63.8471 18.9941C60.8597 18.9941 58.7832 17.5137 58.7832 14.9595C58.7832 12.1037 60.8005 10.5449 64.6265 10.5449H68.0458V9.71374C68.0458 8.18156 66.9455 7.238 65.0584 7.238C63.362 7.238 62.2351 8.04402 62.0191 9.25527H59.1367C59.4576 6.59023 61.7174 4.8924 65.1959 4.8924C68.6744 4.8924 70.9268 6.64051 70.9268 9.89713V15.4121C70.9268 16.1131 71.1693 16.3024 71.7846 16.3024H72.3481V16.3083H72.3495ZM68.0473 12.6997H64.4978C62.7231 12.6997 61.7278 13.3741 61.7278 14.7688C61.7278 15.9282 62.6965 16.7343 64.2553 16.7343C66.626 16.7343 68.0473 15.3071 68.0473 13.2366V12.6997Z" fill="#666666"/>
<path d="M87.9142 10.9768V18.8373H84.98V11.2459C84.98 8.7968 83.9314 7.45393 81.855 7.45393C79.6735 7.45393 78.3573 9.03935 78.3573 11.7044V18.8373H75.4497V5.05657H77.9787L78.2996 6.85791C79.1308 5.7842 80.4278 4.8924 82.5234 4.8924C85.4577 4.8924 87.9083 6.47783 87.9083 10.9768H87.9142Z" fill="#666666"/>
<path d="M91.483 11.9721C91.483 7.72161 94.2013 4.89092 98.3468 4.89092C101.871 4.89092 104.077 6.85643 104.616 9.97995H101.576C101.196 8.36199 100.043 7.36667 98.295 7.36667C95.9834 7.36667 94.4439 9.27894 94.4439 11.9721C94.4439 14.6652 95.976 16.5183 98.295 16.5183C100.018 16.5183 101.202 15.4964 101.55 13.9051H104.616C104.104 17.0286 101.76 18.9941 98.2625 18.9941C94.1155 18.9941 91.4771 16.2758 91.4771 11.9721H91.483Z" fill="#666666"/>
<path d="M120.706 10.9768V18.8373H117.772V11.2193C117.772 8.84857 116.725 7.45245 114.57 7.45245C112.415 7.45245 111.019 9.0704 111.019 11.6778V18.8373H108.112V0H111.019V6.81207C111.963 5.62596 113.39 4.8998 115.245 4.8998C118.473 4.8998 120.706 6.81206 120.706 10.9842V10.9768Z" fill="#666666"/>
<path d="M127.186 12.7589C127.264 15.0971 128.718 16.6367 130.978 16.6367C132.701 16.6367 134.017 15.7463 134.397 14.2127H137.305C136.819 16.931 134.534 19 131.142 19C126.838 19 124.146 16.2033 124.146 11.978C124.146 7.75267 126.838 4.89684 130.846 4.89684C134.854 4.89684 137.469 7.42583 137.547 11.4663C137.547 11.7606 137.52 12.2191 137.469 12.6258H127.186V12.6199V12.7589ZM134.527 10.4399C134.285 8.39601 132.884 7.23652 130.867 7.23652C129.065 7.23652 127.499 8.47439 127.283 10.4399H134.527Z" fill="#666666"/>
</svg>
