<svg width="80" height="21" viewBox="0 0 80 21" fill="none" xmlns="http://www.w3.org/2000/svg">
<path d="M9.27395 6.33982C10.1332 6.33982 10.8458 6.49701 11.485 6.77994C12.1138 7.09431 12.6272 7.48204 13.015 7.99551C13.4341 8.51946 13.7171 9.11677 13.9162 9.81886C14.1048 10.5524 14.1991 11.2964 14.1991 12.0509C14.1991 13.235 13.979 14.4087 13.5284 15.509C13.0988 16.5674 12.4805 17.521 11.6841 18.3383C10.8982 19.1452 9.96557 19.7949 8.92814 20.2455C7.83832 20.7171 6.66467 20.9581 5.47006 20.9476H4.64222C4.25449 20.9476 3.78293 20.8952 3.26946 20.8219L1.63473 20.5075C1.06886 20.3817 0.513473 20.1722 0 19.9416L4.58982 0.649701L8.6976 0L7.06287 6.86377C7.42964 6.70659 7.76497 6.58084 8.13174 6.49701C8.4985 6.38174 8.88623 6.32934 9.27395 6.33982ZM5.82635 17.7201C6.45509 17.7201 7.02096 17.5629 7.56587 17.2799C8.12126 16.9656 8.60329 16.5569 8.99102 16.0644C9.37874 15.5719 9.69311 14.9955 9.92365 14.3458C10.1542 13.6961 10.259 13.0464 10.259 12.3443C10.259 11.485 10.1332 10.8353 9.83982 10.3428C9.55688 9.87126 9.03293 9.61976 8.27844 9.61976C8.01647 9.61976 7.71257 9.67216 7.31437 9.74551C6.91617 9.82934 6.55988 10.0284 6.24551 10.3114L4.50599 17.5838C4.61078 17.6048 4.71557 17.6048 4.78892 17.6362C4.86228 17.6572 4.94611 17.6572 5.0509 17.6886C5.13473 17.6886 5.26048 17.7096 5.36527 17.7096L5.82635 17.7201ZM18.506 20.6437H14.5763L17.8877 6.65419H21.8383L18.506 20.6437ZM20.4027 4.94611C19.8683 4.95659 19.3443 4.77844 18.9251 4.45359C18.485 4.11826 18.2545 3.62575 18.2545 2.94461C18.2545 2.57784 18.3383 2.22156 18.485 1.90719C18.6317 1.58234 18.8308 1.2994 19.0823 1.0479C19.3443 0.817365 19.6272 0.628743 19.9416 0.471557C20.2769 0.345808 20.6123 0.261976 20.979 0.261976C21.5135 0.251497 22.0374 0.429641 22.4566 0.754491C22.8967 1.08982 23.1272 1.58234 23.1272 2.26347C23.1272 2.63024 23.0434 2.98653 22.8967 3.3009C22.75 3.62575 22.5509 3.90868 22.2994 4.16018C22.0689 4.39072 21.7545 4.57934 21.4401 4.72605C21.1257 4.87275 20.7904 4.93563 20.4027 4.93563V4.94611ZM25.2859 3.18563L29.4147 2.53593L28.3982 6.66467H32.8204L32.0135 9.92365H27.6228L26.4491 14.8069C26.3548 15.1841 26.2919 15.5614 26.271 15.9491C26.25 16.3159 26.2919 16.5988 26.3967 16.8503C26.5015 17.1228 26.7006 17.3323 26.9731 17.4476C27.256 17.5734 27.6437 17.6572 28.1467 17.6572C28.5659 17.6572 28.9745 17.6048 29.3832 17.5314C29.7919 17.4581 30.1901 17.3428 30.5778 17.1961L30.8608 20.235C30.2949 20.4341 29.729 20.6018 29.1422 20.7275C28.5135 20.8847 27.7904 20.9371 26.9311 20.9371C25.7156 20.9371 24.7725 20.759 24.1018 20.3922C23.4311 20.0254 22.9596 19.5329 22.6766 18.9147C22.3937 18.2859 22.2575 17.5629 22.3099 16.756C22.3308 15.9491 22.4671 15.0898 22.6766 14.1677L25.2859 3.18563ZM32.6422 15.0584C32.6422 13.8952 32.8413 12.753 33.2186 11.6527C33.5853 10.6258 34.1512 9.68263 34.8847 8.87575C35.6078 8.06886 36.4985 7.4506 37.5359 6.97904C38.5734 6.50749 39.7156 6.27695 40.994 6.27695C41.8009 6.27695 42.503 6.36078 43.1213 6.50749C43.75 6.66467 44.3159 6.84281 44.8398 7.10479L43.488 10.1961C43.1213 10.0389 42.765 9.93413 42.3982 9.80838C42.0105 9.68264 41.5389 9.63024 40.994 9.63024C39.6632 9.63024 38.6572 10.0704 37.8713 10.982C37.0958 11.8937 36.6976 13.0883 36.6976 14.6183C36.6976 15.5195 36.9072 16.253 37.2949 16.7979C37.6826 17.3638 38.4162 17.6257 39.4536 17.6257C39.9566 17.6257 40.4491 17.5734 40.9311 17.4686C41.3713 17.3743 41.7904 17.2485 42.2096 17.0808L42.4925 20.2455L40.8578 20.7695C40.2605 20.9266 39.5269 21 38.6991 21C37.6093 21 36.6766 20.8428 35.9222 20.5284C35.2096 20.235 34.5599 19.7949 34.0254 19.229C33.5225 18.6841 33.1662 18.0344 32.9566 17.3323C32.747 16.5988 32.6422 15.8234 32.6422 15.0584ZM50.1003 21C49.1677 21 48.3293 20.8428 47.6587 20.5808C46.9566 20.2979 46.3802 19.9102 45.9401 19.3862C45.4895 18.8518 45.1437 18.2335 44.9236 17.5629C44.6931 16.8608 44.5883 16.0853 44.5883 15.247C44.5883 14.1781 44.7665 13.1198 45.1123 12.0509C45.4371 11.0135 45.9611 10.0389 46.6422 9.19012C47.3129 8.33084 48.1512 7.62874 49.1153 7.11527C50.0793 6.57036 51.1901 6.30838 52.4686 6.30838C53.2964 6.30838 54.1242 6.44461 54.9102 6.72755C55.6123 7.01048 56.1886 7.3982 56.6287 7.92216C57.0793 8.45659 57.4252 9.07485 57.6452 9.74551C57.8757 10.4476 57.9805 11.2231 57.9805 12.0614C57.9805 13.1302 57.8233 14.1886 57.488 15.2575C57.1527 16.3263 56.6602 17.2799 56.0105 18.1183C55.3608 18.9775 54.5329 19.6482 53.5374 20.1931C52.5419 20.738 51.3892 21 50.1003 21ZM52.0704 9.61976C51.5254 9.61976 50.9805 9.78743 50.5404 10.1123C50.1003 10.4476 49.7335 10.8668 49.4192 11.3907C49.1048 11.9147 48.8952 12.4596 48.7485 13.0778C48.5913 13.7066 48.518 14.2725 48.518 14.8174C48.518 15.6976 48.6751 16.3892 48.9371 16.8922C49.2201 17.3847 49.744 17.6467 50.4671 17.6467C51.0644 17.6467 51.5569 17.4895 51.997 17.1542C52.4371 16.8189 52.8039 16.3997 53.1183 15.8757C53.4326 15.3518 53.6422 14.8069 53.7889 14.1886C53.9356 13.6228 54.0195 13.0359 54.0195 12.4491C54.0195 11.5689 53.8937 10.8772 53.6003 10.3743C53.3174 9.86078 52.8039 9.60928 52.0704 9.61976ZM62.256 20.6332H58.3263L61.6482 6.65419H65.5988L62.256 20.6332ZM64.1527 4.93563C63.6183 4.94611 63.0943 4.76796 62.6751 4.44311C62.235 4.10778 62.0045 3.61527 62.0045 2.93413C62.0045 2.56737 62.0883 2.21108 62.235 1.89671C62.3817 1.57186 62.5808 1.28892 62.8323 1.03743C63.0943 0.806886 63.3772 0.618263 63.6916 0.461078C64.0269 0.335329 64.3623 0.251497 64.729 0.251497C65.2635 0.241018 65.7874 0.419162 66.2066 0.744012C66.6467 1.07934 66.8772 1.57186 66.8772 2.25299C66.8772 2.61976 66.7934 2.97605 66.6467 3.29042C66.5 3.61527 66.3009 3.8982 66.0494 4.1497C65.7874 4.38024 65.5045 4.56886 65.1901 4.72605C64.8862 4.88323 64.5509 4.93563 64.1527 4.93563ZM68.4386 7.27246L69.4236 6.95808L70.6392 6.64371C71.1317 6.52844 71.6347 6.45509 72.1482 6.41317L74.0449 6.30838C76.1198 6.30838 77.5554 6.90569 78.3308 8.13174C79.1063 9.32635 79.2635 10.9925 78.75 13.0674L76.9266 20.6018H72.976L74.7156 13.2246L74.9775 11.8728C75.0299 11.4326 75.0299 11.0659 74.9566 10.7305C74.8937 10.4162 74.7156 10.1228 74.4641 9.92365C74.2021 9.71407 73.8144 9.60928 73.2695 9.60928C72.7455 9.60928 72.232 9.66168 71.7081 9.76647L69.1302 20.5808H65.1796L68.4386 7.27246Z" fill="#666666"/>
</svg>
