<svg width="109" height="17" viewBox="0 0 109 17" fill="none" xmlns="http://www.w3.org/2000/svg">
<path d="M108.258 3.4249L103.986 0.280223H88.1791L87.1507 3.4249H95.4891L91.0116 16.9999H94.4608L98.9227 3.4249H108.258Z" fill="#666666"/>
<path d="M49.2716 0.280223L44.9835 3.4249H61.1544L62.1987 0.280223H49.2716Z" fill="#666666"/>
<path d="M44.9835 3.4249L40.506 17H43.9552L47.7685 5.43319L44.9835 3.4249Z" fill="#666666"/>
<path d="M62.1987 0.280223L57.5309 14.4312L59.1607 14.3067L52.4678 9.30948H47.4992L57.42 16.9999H60.1257L64.9833 2.28845L62.1987 0.280223Z" fill="#666666"/>
<path d="M20.2371 8.48438L24.3035 6.50732L25.6959 2.28845L22.9111 0.280223H4.30373L0 3.4249H21.8668L20.7118 6.97433H11.946L11.0916 9.54302H19.8574L17.4048 16.9999L21.5029 14.9917L22.9744 10.5238L20.2213 8.53111L20.2371 8.48438Z" fill="#666666"/>
<path d="M6.18642 13.793L8.71801 6.04026L5.90161 3.96975L1.69278 16.9999L17.4048 16.9999L18.4489 13.793H6.18642Z" fill="#666666"/>
<path d="M30.9805 2.00824L28.1957 0L23.2907 14.8516L26.2495 16.9999H38.7495L39.8094 13.793H27.0881L30.9805 2.00824Z" fill="#666666"/>
<path d="M68.8443 7.05225L69.398 5.41763L66.6289 3.42497L65.0469 8.18869L67.8 10.1658V10.1814H80.1416L78.9549 13.793H63.2431L62.1988 17H77.8947L82.0084 14.9918L84.034 8.85809L81.4863 7.02109L68.8443 7.05225Z" fill="#666666"/>
<path d="M70.9008 0.280223L66.6289 3.42497L85.4419 3.4249L86.4862 0.280223H70.9008Z" fill="#666666"/>
</svg>
