<svg width="95" height="19" viewBox="0 0 95 19" fill="none" xmlns="http://www.w3.org/2000/svg">
<path d="M71.5452 18.9506H81.7001V0.0560416H71.5452V18.9506ZM63.9121 0.0522422H69.9323V2.49148H64.3652C63.4467 2.49148 62.6944 2.75744 62.1093 3.28746C61.5232 3.81843 61.2307 4.51562 61.2307 5.37999C61.2307 6.26241 61.5232 6.9691 62.1093 7.49913C62.6944 8.0301 63.4467 8.29511 64.3652 8.29511H69.9323V18.9497H57.7789V16.5057H64.1496C65.1403 16.5057 65.9467 16.2264 66.5679 15.6689C67.1891 15.1113 67.4997 14.3998 67.4997 13.5364C67.4997 12.673 67.1891 11.9711 66.5679 11.4306C65.9467 10.8911 65.1403 10.6204 64.1496 10.6204L63.3412 10.6346C60.7415 10.6346 58.63 8.53732 58.6138 5.94041L58.61 5.37049V5.3496C58.61 2.42404 60.9837 0.0522422 63.9121 0.0522422ZM89.1261 0.0522422H94.9592V2.49148H89.5792C88.6607 2.49148 87.9084 2.75744 87.3233 3.28746C86.7372 3.81843 86.4446 4.51562 86.4446 5.37999C86.4446 6.26241 86.7372 6.9691 87.3233 7.49913C87.9084 8.0301 88.6607 8.29511 89.5792 8.29511H94.9592V13.5507C94.9592 16.5332 92.5399 18.9506 89.5554 18.9506H83.3652V16.5066H89.1774C90.1681 16.5066 90.9745 16.2274 91.5957 15.6698C92.2169 15.1122 92.5275 14.4008 92.5275 13.5374C92.5275 12.6739 92.2169 11.972 91.5957 11.4315C90.9745 10.892 90.1681 10.6356 89.1774 10.6356H83.8582L83.8249 5.37049V5.3496C83.824 2.42404 86.1977 0.0522422 89.1261 0.0522422ZM9.45678 0.0522422H16.2663V2.49148H9.6458C8.40244 2.49148 7.25406 2.80208 6.20067 3.42329C5.14728 4.04449 4.3133 4.89082 3.70159 5.96131C3.08894 7.0318 2.78308 8.19727 2.78308 9.45678C2.78308 10.7172 3.08894 11.9891 3.70159 13.051C4.3133 14.113 5.14728 14.9546 6.20067 15.5748C7.25501 16.196 8.40339 16.5066 9.6458 16.5066H13.6713V10.6356H7.13343V8.25901H16.2663V18.9497H9.46343C4.23826 18.9544 0 14.7228 0 9.50142C0 4.28291 4.23446 0.0522422 9.45678 0.0522422ZM36.1012 8.82513V18.9573H33.6914V8.85647C33.6914 5.34105 30.839 2.49053 27.3208 2.49053C23.8025 2.49053 20.9501 5.3401 20.9501 8.85647V18.9573H18.5184V0.0626906H27.3331C32.1755 0.0626906 36.1012 3.9856 36.1012 8.82513ZM79.9039 5.75424C79.9039 7.56657 78.4354 9.03504 76.6231 9.03504C74.8108 9.03504 73.3423 7.56657 73.3423 5.75424C73.3423 3.94191 74.8108 2.47343 76.6231 2.47343C78.4345 2.47438 79.9039 3.94286 79.9039 5.75424ZM55.7946 4.69135C54.9274 3.23237 53.7572 2.08589 52.2868 1.25096C50.8155 0.417937 49.2131 0 47.4786 0C45.7964 0 44.2073 0.417937 42.7103 1.25096C41.2124 2.08494 40.0431 3.23237 39.2025 4.69135C38.3609 6.15128 37.9411 7.74039 37.9411 9.46153C37.9411 11.1817 38.3609 12.7727 39.2025 14.2308C40.0422 15.6907 41.2124 16.8505 42.7103 17.7101C44.2083 18.5707 45.7964 19 47.4786 19C49.2121 19 50.8145 18.5697 52.2868 17.7101C53.7572 16.8495 54.9274 15.6907 55.7946 14.2308C56.6619 12.7718 57.095 11.1808 57.095 9.46153C57.095 7.74039 56.6619 6.15128 55.7946 4.69135ZM47.5185 12.7946C45.7014 12.7946 44.2292 11.3214 44.2292 9.50332C44.2292 7.6853 45.7024 6.21207 47.5185 6.21207C49.3356 6.21207 50.8079 7.6853 50.8079 9.50332C50.8088 11.3214 49.3356 12.7946 47.5185 12.7946Z" fill="#666666"/>
</svg>
