<svg width="53" height="22" viewBox="0 0 53 22" fill="none" xmlns="http://www.w3.org/2000/svg">
<path d="M19.8828 5.41278H14.7773V21.7363H19.8828V5.41278Z" fill="#666666"/>
<path d="M32.5513 12.7711C31.8112 12.4373 30.8793 12.1108 29.7584 11.7987C29.1662 11.6115 28.669 11.4434 28.2662 11.297C27.8634 11.1505 27.5455 10.9776 27.315 10.7783C27.0818 10.5791 26.9654 10.3342 26.9654 10.0413C26.9654 9.76997 27.0917 9.5275 27.3465 9.31861C27.6014 9.10974 27.9604 9.0041 28.4264 9.0041C28.9334 9.0041 29.3313 9.16015 29.6154 9.47466C29.8311 9.71236 29.9912 10.0005 30.0908 10.3342H35.1089C34.9948 9.34264 34.6646 8.45912 34.1211 7.68364C33.5608 6.88893 32.7891 6.26471 31.8039 5.81574C30.8211 5.36678 29.6735 5.14112 28.3606 5.14112C26.9654 5.14112 25.7741 5.34518 24.7913 5.75334C23.8085 6.16149 23.066 6.73287 22.5685 7.46514C22.0714 8.19741 21.8238 9.02573 21.8238 9.94526C21.8238 10.9512 22.0832 11.7771 22.6001 12.4253C23.1193 13.0736 23.7431 13.5778 24.4733 13.9331C25.204 14.2884 26.1187 14.6438 27.218 15.0015C27.8319 15.2103 28.3438 15.4 28.7562 15.5657C29.1688 15.7337 29.4963 15.933 29.739 16.1635C29.9816 16.394 30.103 16.6557 30.103 16.9486C30.103 17.2631 29.9646 17.5296 29.6903 17.7481C29.4161 17.969 29.0038 18.077 28.453 18.077C27.9022 18.077 27.4097 17.9161 27.0407 17.5896C26.7836 17.3639 26.5965 17.0806 26.4778 16.7373H21.4647C21.5762 17.7097 21.8941 18.5812 22.4232 19.3471C22.9934 20.1753 23.7917 20.8236 24.8179 21.2942C25.8445 21.7647 27.0552 22 28.4504 22C29.9307 22 31.1851 21.7791 32.2117 21.3398C33.2379 20.9004 34.0047 20.2978 34.5121 19.5343C35.0191 18.7708 35.2739 17.8753 35.2739 16.8501C35.2739 15.825 35.0046 14.9198 34.4657 14.2596C33.9271 13.5994 33.2866 13.1024 32.5464 12.7687L32.5513 12.7711Z" fill="#666666"/>
<path d="M5.1055 0L0 5.41397V21.7351H13.2223V16.7365H5.1055V0Z" fill="#666666"/>
<path d="M46.7903 13.5121L52.1382 5.41397L46.4309 5.41156L41.964 12.2012V0L36.8562 5.41397V21.7351H41.964V14.8086L46.8485 21.7351H52.5604L46.7903 13.5121Z" fill="#666666"/>
</svg>
