<svg width="78" height="20" viewBox="0 0 78 20" fill="none" xmlns="http://www.w3.org/2000/svg">
<path d="M14.6568 0.923006L10.9369 11.3126V14.3599H9.71707V11.3126L5.99722 0.923006H0V19.0724H4.02597V10.0278L2.42115 4.87013L3.56679 4.4666L8.7987 19.077H11.8599L17.0918 4.4666L18.2375 4.87013L16.628 10.0278V19.0724H20.654V0.923006H14.6568ZM58.9007 2.98701C57.9174 2.25881 56.7718 1.73469 55.4545 1.41002C54.1373 1.08534 52.7505 0.923006 51.2848 0.923006H45.2458V19.0724H51.8275C53.1865 19.0724 54.4852 18.8776 55.7236 18.4833C56.962 18.0891 58.0566 17.5139 59.0028 16.7532C59.949 15.9926 60.7004 15.051 61.2616 13.9332C61.8228 12.8154 62.1011 11.5213 62.1011 10.051C62.1011 8.39518 61.8135 6.98516 61.2384 5.82096C60.6633 4.65677 59.884 3.71521 58.9007 2.98701ZM57.4165 12.449C57.0826 13.1586 56.6187 13.7291 56.0343 14.1651C55.4499 14.6011 54.7588 14.9119 53.9564 15.102C53.154 15.2922 52.2913 15.385 51.3636 15.385H49.2718V4.61503H51.6466C52.4907 4.61503 53.2931 4.72171 54.0584 4.93506C54.8237 5.14842 55.4917 5.46846 56.0575 5.89518C56.6234 6.32189 57.0779 6.86456 57.4119 7.52319C57.7458 8.18182 57.9174 8.9564 57.9174 9.8423C57.9221 10.872 57.7551 11.7393 57.4165 12.449ZM69.0213 15.385V11.693H76.9481V8.00093H69.0213V4.61503H77.8757V0.923006H64.9954V19.0724H77.8757V15.3803H69.0213V15.385Z" fill="#666666"/>
<path d="M32.6809 20C38.2422 20 42.7505 15.5228 42.7505 10C42.7505 4.47715 38.2422 0 32.6809 0C27.1196 0 22.6113 4.47715 22.6113 10C22.6113 15.5228 27.1196 20 32.6809 20Z" fill="#666666"/>
</svg>
