<svg width="95" height="21" viewBox="0 0 95 21" fill="none" xmlns="http://www.w3.org/2000/svg">
<path d="M2.48116 20.6751H0V2.5594e-05H9.77652C14.0888 2.5594e-05 16.3924 2.74685 16.3924 6.05485C16.3924 10.249 13.4388 12.4937 9.77652 12.4937H2.48116V20.6751ZM2.48116 2.27428V10.2194H9.8947C12.4641 10.2194 13.8524 8.35866 13.8524 6.05485C13.8524 3.6034 12.0801 2.27428 9.8947 2.27428H2.48116Z" fill="#666666"/>
<path d="M21.612 20.6751H19.1605V0H21.612V20.6751Z" fill="#666666"/>
<path d="M30.4614 20.9115C26.917 20.9115 24.6428 19.0802 24.6428 16.2152C24.6428 12.6118 28.1281 11.9325 31.2587 11.6076C33.6511 11.3713 35.7186 11.4008 35.7483 10.1308C35.7186 8.15191 34.0942 6.76372 31.7312 6.76372C29.457 6.76372 27.685 8.03377 27.4192 9.89452H24.9971C25.2926 6.82279 28.069 4.66667 31.7903 4.66667C35.6595 4.66667 38.1407 6.97047 38.1407 10.2785V17.8987C38.1407 18.4008 38.1407 18.6667 38.1407 18.6667V20.6751C36.4572 20.6751 37.1426 20.6751 35.8662 20.6751V17.9873C34.9507 19.789 33.1786 20.9115 30.4614 20.9115ZM30.8157 18.8143C33.7399 18.8143 35.7483 16.9536 35.7483 14.3544V12.3165C35.0689 13.232 33.3262 13.4093 31.4063 13.616C29.2503 13.8523 27.0943 14.1477 27.0943 16.1561C27.0943 17.7806 28.5711 18.8143 30.8157 18.8143Z" fill="#666666"/>
<path d="M47.2352 21C43.5138 21 40.7669 19.0506 40.5602 15.7426H42.9526C43.1298 17.7806 44.9907 18.9029 47.3534 18.9029C49.5685 18.9029 50.6319 18.0464 50.6319 16.481C50.6319 15.0042 49.48 14.6793 47.8555 14.1181L45.5813 13.3502C43.2775 12.5823 40.9736 11.8734 40.9736 9.03798C40.9736 6.37977 43.0411 4.66667 46.4672 4.66667C49.923 4.66667 52.3154 6.52745 52.6994 10.0127H50.307C50.0412 7.82702 48.5053 6.76372 46.3787 6.76372C44.4588 6.76372 43.3366 7.62027 43.3366 8.97891C43.3366 10.6034 45.0497 10.9283 46.3493 11.3713L48.4759 12.0802C51.3408 13.0253 53.0537 14 53.0537 16.5991C53.0537 19.346 51.0453 21 47.2352 21Z" fill="#666666"/>
<path d="M58.0467 20.6751H55.5953V5.0211H57.5446L57.7807 7.44304C58.8441 5.75951 60.882 4.66667 63.1267 4.66667C65.4897 4.66667 67.2617 5.87765 68.0594 7.76795C69.0635 5.93672 71.2195 4.66667 73.6121 4.66667C76.9201 4.66667 79.0467 7.00002 79.0467 10.1899V20.6751H76.5952V10.2785C76.5952 8.18145 75.2956 6.82279 73.1985 6.82279C70.2745 6.82279 68.5613 8.77216 68.5319 11.1645V20.6751H66.1098V10.2785C66.1098 8.18145 64.8103 6.82279 62.7133 6.82279C59.7894 6.82279 58.0762 8.77216 58.0467 11.1645V20.6751Z" fill="#666666"/>
<path d="M86.966 20.9115C83.4217 20.9115 81.1475 19.0802 81.1475 16.2152C81.1475 12.6118 84.6327 11.9325 87.7634 11.6076C90.1558 11.3713 92.2233 11.4008 92.2529 10.1308C92.2233 8.15191 90.5988 6.76372 88.2359 6.76372C85.9617 6.76372 84.1896 8.03377 83.9238 9.89452H81.5018C81.7972 6.82279 84.5736 4.66667 88.295 4.66667C92.1642 4.66667 94.6453 6.97047 94.6453 10.2785V17.8987C94.6453 18.4008 94.6453 18.6667 94.6453 18.6667V20.6751C92.9618 20.6751 93.6472 20.6751 92.3709 20.6751V17.9873C91.4553 19.789 89.6833 20.9115 86.966 20.9115ZM87.3203 18.8143C90.2445 18.8143 92.2529 16.9536 92.2529 14.3544V12.3165C91.5735 13.232 89.8309 13.4093 87.911 13.616C85.7549 13.8523 83.5989 14.1477 83.5989 16.1561C83.5989 17.7806 85.0758 18.8143 87.3203 18.8143Z" fill="#666666"/>
</svg>
