<svg width="71" height="20" viewBox="0 0 71 20" fill="none" xmlns="http://www.w3.org/2000/svg">
<path d="M3.93011 19.7777V14.8873H7.54488L10.82 19.7777H15.0414L11.2325 14.1349C12.3484 13.6333 13.2097 12.9102 13.8161 11.9656C14.4227 11.0209 14.7259 9.89648 14.7259 8.59239C14.7259 7.2883 14.4267 6.15966 13.8283 5.20667C13.2299 4.25365 12.3767 3.51799 11.2689 2.99968C10.161 2.48138 8.855 2.22223 7.3508 2.22223H0V19.7777H3.93011ZM7.31261 11.7777H4.08261V5.55556H7.31261C8.50352 5.55556 9.40886 5.8233 10.0289 6.35886C10.6487 6.89432 10.9586 7.66364 10.9586 8.6667C10.9586 9.65273 10.6487 10.4177 10.0289 10.9617C9.40886 11.5058 8.50352 11.7777 7.31261 11.7777ZM23.9709 20C25.3512 20 26.5855 19.7009 27.6735 19.1028C28.7616 18.5048 29.6142 17.6751 30.2314 16.6138C30.8485 15.5524 31.157 14.3477 31.157 13C31.157 11.6523 30.8485 10.4476 30.2314 9.38625C29.6142 8.32489 28.7616 7.49523 27.6735 6.89716C26.5855 6.29909 25.3512 6 23.9709 6C22.5905 6 21.3522 6.29909 20.256 6.89716C19.1598 7.49523 18.3031 8.32489 17.686 9.38625C17.0689 10.4476 16.7603 11.6523 16.7603 13C16.7603 14.3477 17.0689 15.5524 17.686 16.6138C18.3031 17.6751 19.1598 18.5048 20.256 19.1028C21.3522 19.7009 22.5905 20 23.9709 20ZM23.9708 16.8889C23.0019 16.8889 22.2025 16.5466 21.5727 15.862C20.943 15.1775 20.6281 14.2605 20.6281 13.1111C20.6281 11.9617 20.943 11.0448 21.5727 10.3602C22.2025 9.67557 23.0019 9.33329 23.9708 9.33329C24.9397 9.33329 25.735 9.67557 26.3567 10.3602C26.9784 11.0448 27.2892 11.9617 27.2892 13.1111C27.2892 14.2605 26.9784 15.1775 26.3567 15.862C25.735 16.5466 24.9397 16.8889 23.9708 16.8889ZM37.2993 19.7777V13.0656C37.2993 11.8543 37.5819 10.9417 38.1472 10.3276C38.7124 9.71364 39.4712 9.40659 40.4241 9.40659C41.2799 9.40659 41.9339 9.67159 42.386 10.2015C42.8382 10.7314 43.0643 11.5347 43.0643 12.6114V19.7777H46.843V12.0057C46.843 10.0206 46.3464 8.52341 45.3533 7.51409C44.3602 6.50466 43.0563 6 41.4414 6C40.5532 6 39.7377 6.15557 38.9949 6.46682C38.252 6.77807 37.6303 7.21966 37.1298 7.79159V6.20182H33.5207V19.7777H37.2993ZM52.2149 4.44444C52.9134 4.44444 53.4819 4.22733 53.9206 3.7931C54.3592 3.35888 54.5785 2.8097 54.5785 2.14559C54.5785 1.53257 54.3592 1.02172 53.9206 0.613023C53.4819 0.204341 52.9134 0 52.2149 0C51.5164 0 50.9477 0.212852 50.5092 0.638568C50.0706 1.06428 49.8512 1.59217 49.8512 2.22223C49.8512 2.85227 50.0706 3.38016 50.5092 3.80588C50.9477 4.23159 51.5164 4.44444 52.2149 4.44444ZM54.1487 19.7777V6.22227H50.281V19.7777H54.1487ZM61.3655 19.7777V13.0656C61.3655 11.8543 61.6481 10.9417 62.2133 10.3276C62.7784 9.71364 63.5374 9.40659 64.4901 9.40659C65.346 9.40659 66 9.67159 66.4522 10.2015C66.9043 10.7314 67.1303 11.5347 67.1303 12.6114V19.7777H70.9091V12.0057C70.9091 10.0206 70.4125 8.52341 69.4194 7.51409C68.4262 6.50466 67.1224 6 65.5075 6C64.6193 6 63.8039 6.15557 63.061 6.46682C62.3182 6.77807 61.6965 7.21966 61.1959 7.79159V6.20182H57.5868V19.7777H61.3655Z" fill="#666666"/>
</svg>
