<svg width="37" height="23" viewBox="0 0 37 23" fill="none" xmlns="http://www.w3.org/2000/svg">
<path d="M27.9915 15.8544C27.9915 16.8323 27.776 17.6464 27.3518 18.2743C26.9323 18.9036 26.4048 19.3764 25.7827 19.6807C25.1667 19.985 24.5521 20.1402 23.9583 20.1402C22.9716 20.1402 22.1469 19.8004 21.5119 19.1311C20.8793 18.4589 20.5602 17.5415 20.5602 16.4039V6.12299H17.7742V16.5738C17.7742 17.9699 18.0058 19.1459 18.4655 20.0707C18.9262 20.9941 19.572 21.6973 20.3831 22.1597C21.1899 22.6133 22.1236 22.8437 23.1577 22.8437C24.4073 22.8437 25.4593 22.5468 26.2836 21.9618C27.0284 21.4269 27.6013 20.7784 27.9915 20.0323V22.6325H30.7779V6.12299H27.9915V15.8558V15.8544Z" fill="#666666"/>
<path d="M13.6184 12.2093C12.9773 11.7543 12.2946 11.3894 11.59 11.1249C10.903 10.8664 10.2705 10.6595 9.70792 10.5103L7.50059 9.91642C7.10474 9.81301 6.66442 9.67561 6.1947 9.50869C5.72785 9.3373 5.27426 9.11718 4.85008 8.85715C4.43343 8.59418 4.08634 8.2648 3.81753 7.87626C3.56047 7.48772 3.43046 7.01495 3.43046 6.46983C3.43046 5.81534 3.61956 5.22292 3.99347 4.71028C4.37606 4.19172 4.91821 3.77805 5.60056 3.48109C6.29653 3.18118 7.1223 3.02901 8.05457 3.02901C9.32819 3.02901 10.4154 3.31858 11.2885 3.89182C12.1469 4.4547 12.6435 5.25688 12.7643 6.27627L12.7794 6.40629H15.5966L15.5905 6.25411C15.555 5.13722 15.2036 4.12525 14.5492 3.24766C13.9035 2.37309 13.0171 1.67575 11.9163 1.17494C10.8187 0.668184 9.54692 0.4126 8.13884 0.4126C6.73076 0.4126 5.46323 0.672631 4.33017 1.18527C3.19997 1.6935 2.28549 2.41887 1.61182 3.34372C0.941089 4.26559 0.601313 5.36032 0.601313 6.59687C0.601313 8.09047 1.11542 9.31661 2.1274 10.2415C3.12464 11.153 4.49403 11.8636 6.19757 12.3541L8.85812 13.1149C9.60716 13.3232 10.315 13.57 10.9607 13.8477C11.5915 14.1195 12.1071 14.4756 12.4925 14.9085C12.8665 15.328 13.0569 15.885 13.0569 16.5631C13.0569 17.3136 12.8339 17.9784 12.3921 18.5398C11.9461 19.1012 11.3301 19.5474 10.5631 19.8665C9.79039 20.1812 8.90258 20.3407 7.92764 20.3407C7.09004 20.3407 6.2951 20.2151 5.56972 19.9684C4.85762 19.7173 4.25917 19.3332 3.7939 18.8264C3.33884 18.3182 3.0744 17.6652 3.00792 16.8852L2.99609 16.7507H0L0.0118332 16.9088C0.0975301 18.1128 0.472769 19.1869 1.12726 20.0984C1.78762 21.01 2.7021 21.7295 3.84718 22.2377C4.99351 22.7429 6.36753 23 7.92907 23C9.60429 23 11.0507 22.7149 12.225 22.152C13.413 21.5861 14.3291 20.812 14.9451 19.8502C15.5701 18.887 15.8878 17.7952 15.8878 16.603C15.8878 15.5674 15.6705 14.6794 15.2434 13.9629C14.8196 13.2509 14.2728 12.6614 13.6184 12.2078V12.2093Z" fill="#666666"/>
<path d="M36.5988 1.83635C36.5988 1.3311 36.4055 0.893793 36.0258 0.536269C35.6533 0.18025 35.2015 0 34.6783 0C34.1552 0 33.7002 0.18025 33.3208 0.537739C32.9468 0.895263 32.7579 1.33257 32.7579 1.83782C32.7579 2.34311 32.9468 2.77891 33.3222 3.1379C33.7002 3.49396 34.157 3.67421 34.6798 3.67421C35.2029 3.67421 35.612 3.5102 35.9724 3.18814L35.9889 3.17337C36.0022 3.16157 36.0154 3.14974 36.0287 3.13643L36.0818 3.08473C36.4274 2.73606 36.602 2.3165 36.602 1.83635H36.5988Z" fill="#666666"/>
<path d="M36.0491 6.12116H33.2627V22.6308H36.0491V6.12116Z" fill="#666666"/>
</svg>
