<svg width="77" height="17" viewBox="0 0 77 17" fill="none" xmlns="http://www.w3.org/2000/svg">
<path d="M5.69936 16.7361H1.1708L5.36801 3.98061H0L1.1708 0.241933H16.1261L14.9553 3.98061H9.87449L5.69936 16.7361Z" fill="#666666"/>
<path d="M22.5515 16.7361H11.8155L17.2056 0.241933H27.8974L26.8812 3.38682H20.6738L19.5472 6.92756H25.5558L24.5396 10.0285H18.5089L17.3823 13.5912H23.5456L22.5515 16.7361Z" fill="#666666"/>
<path d="M27.4106 16.7361H23.8099L29.2221 0.241933H35.2307L35.0319 9.14879L40.8859 0.241933H47.469L42.0789 16.7361H37.5724L41.1509 5.65204H41.0848L33.7286 16.7361H31.0556L31.166 5.52007H31.1219L27.4106 16.7361Z" fill="#666666"/>
<path d="M52.538 3.29885L50.793 8.62098H51.2789C52.3832 8.62098 53.3038 8.36439 54.04 7.85125C54.7765 7.32343 55.2551 6.57569 55.4761 5.60802C55.6675 4.77233 55.5644 4.17854 55.1668 3.82668C54.7691 3.47479 54.1065 3.29885 53.1785 3.29885H52.538ZM48.1639 16.7361H43.6356L49.0257 0.241933H54.5259C55.7928 0.241933 56.8823 0.447193 57.7955 0.857717C58.7235 1.25358 59.4009 1.82538 59.8277 2.57311C60.2697 3.30619 60.4168 4.16387 60.2697 5.14621C60.0783 6.4364 59.5775 7.57267 58.7674 8.55501C57.9574 9.53731 56.9045 10.2997 55.6084 10.8422C54.3271 11.37 52.8913 11.6339 51.3007 11.6339H49.8206L48.1639 16.7361Z" fill="#666666"/>
<path d="M71.0636 15.6805C69.5613 16.5601 67.9637 17 66.27 17H66.226C64.7237 17 63.4572 16.6701 62.4261 16.0103C61.4102 15.3359 60.681 14.4269 60.2394 13.2833C59.8122 12.1397 59.7091 10.8862 59.9301 9.52262C60.2098 7.80725 60.8503 6.22381 61.8518 4.77231C62.8533 3.32083 64.105 2.16257 65.6073 1.29754C67.1096 0.432513 68.7146 0 70.4231 0H70.4671C72.0281 0 73.3168 0.329884 74.3331 0.989651C75.3638 1.64942 76.0782 2.5511 76.4759 3.69469C76.8883 4.82364 76.9766 6.09184 76.7408 7.49937C76.4611 9.15609 75.8206 10.7175 74.8191 12.1837C73.8176 13.6352 72.5659 14.8008 71.0636 15.6805ZM64.812 12.8435C65.2097 13.5912 65.9019 13.9651 66.8886 13.9651H66.9326C67.7427 13.9651 68.4936 13.6645 69.1858 13.0634C69.8928 12.4476 70.4893 11.6266 70.9753 10.6003C71.476 9.57396 71.8441 8.43037 72.0799 7.16945C72.3009 5.93792 72.2122 4.94826 71.8145 4.20052C71.4173 3.43812 70.7325 3.05692 69.7601 3.05692H69.7161C68.9652 3.05692 68.236 3.36481 67.5291 3.98059C66.8369 4.59639 66.233 5.42474 65.7178 6.46573C65.2023 7.50668 64.8268 8.63563 64.591 9.85253C64.3556 11.0841 64.4291 12.0811 64.812 12.8435Z" fill="#666666"/>
</svg>
