<svg width="105" height="21" viewBox="0 0 105 21" fill="none" xmlns="http://www.w3.org/2000/svg">
<path d="M7.91998 21C2.99999 21 0 18.2099 0 13.0799V0H3.11999V12.8999C3.11999 16.23 4.67999 18.3899 7.91998 18.3899C11.43 18.3899 12.72 16.23 12.72 12.8999V0H15.84V13.0799C15.84 18.2099 12.84 21 7.91998 21ZM18.5697 20.64V5.81994H21.5097V7.91993H21.5397C22.3797 6.62994 24.0297 5.45994 26.2797 5.45994C29.5796 5.45994 31.5296 7.43994 31.5296 11.0399V20.64H28.5596V12.3299C28.5596 9.65993 27.9597 7.94993 25.4697 7.94993C22.9797 7.94993 21.5397 9.95993 21.5397 12.3599V20.64H18.5697ZM34.274 20.64V5.81994H37.244V20.64H34.274ZM34.274 3.50994V0H37.244V3.50994H34.274ZM46.4941 21C42.1445 21 39.2045 17.8499 39.2045 13.1999C39.2045 8.63993 42.1445 5.45994 46.5241 5.45994C50.3641 5.45994 52.4941 7.70994 53.2741 10.4999L50.2741 11.2199C49.8841 9.35993 48.7441 7.82994 46.5241 7.82994C44.1541 7.82994 42.3245 9.71993 42.3245 13.1999C42.3245 16.7399 44.0941 18.6299 46.5841 18.6299C48.6541 18.6299 49.9441 17.3399 50.4241 15.2399L53.3941 15.9599C52.4941 18.7499 50.4241 21 46.4941 21ZM54.9887 20.64V0H57.9587V7.88994H57.9887C58.9187 6.44994 60.4487 5.45994 62.6987 5.45994C65.9987 5.45994 67.9487 7.43994 67.9487 11.0399V20.64H64.9787V12.3299C64.9787 9.65993 64.3787 7.94993 61.8887 7.94993C59.3987 7.94993 57.9587 9.95993 57.9587 12.3599V20.64H54.9887ZM75.0137 21C72.3437 21 69.9437 19.3799 69.9437 16.6199C69.9437 13.9199 71.8337 12.6899 75.0437 12.0599L77.0837 11.6399C78.6737 11.3099 79.4237 10.9799 79.4237 9.74993C79.4237 8.51993 78.4037 7.64993 76.6037 7.64993C74.6537 7.64993 73.3937 8.84993 73.2737 10.8299L70.2137 10.5599C70.4237 7.37994 72.9737 5.45994 76.6337 5.45994C80.4137 5.45994 82.4237 7.28994 82.4237 10.4099V20.64H79.5737V18.8999H79.5437C78.8537 20.0399 77.3237 21 75.0137 21ZM75.7937 18.8699C77.8937 18.8699 79.5437 17.4899 79.5437 15.0299V13.2299C76.4237 13.7399 74.9537 14.1599 74.0537 14.7299C73.3637 15.1499 72.9737 15.7499 72.9737 16.5599C72.9737 17.9399 74.1137 18.8699 75.7937 18.8699ZM85.1968 20.64V5.81994H88.1668V20.64H85.1968ZM85.1968 3.50994V0H88.1668V3.50994H85.1968ZM91.0571 20.64V5.81994H93.9971V7.91993H94.0271C94.8671 6.62994 96.5171 5.45994 98.7671 5.45994C102.067 5.45994 104.017 7.43994 104.017 11.0399V20.64H101.047V12.3299C101.047 9.65993 100.447 7.94993 97.9571 7.94993C95.4671 7.94993 94.0271 9.95993 94.0271 12.3599V20.64H91.0571Z" fill="#666666"/>
<path d="M7.91998 21C2.99999 21 0 18.2099 0 13.0799V0H3.11999V12.8999C3.11999 16.23 4.67999 18.3899 7.91998 18.3899C11.43 18.3899 12.72 16.23 12.72 12.8999V0H15.84V13.0799C15.84 18.2099 12.84 21 7.91998 21ZM18.5697 20.64V5.81994H21.5097V7.91993H21.5397C22.3797 6.62994 24.0297 5.45994 26.2797 5.45994C29.5796 5.45994 31.5296 7.43994 31.5296 11.0399V20.64H28.5596V12.3299C28.5596 9.65993 27.9597 7.94993 25.4697 7.94993C22.9797 7.94993 21.5397 9.95993 21.5397 12.3599V20.64H18.5697ZM34.274 20.64V5.81994H37.244V20.64H34.274ZM34.274 3.50994V0H37.244V3.50994H34.274ZM46.4941 21C42.1445 21 39.2045 17.8499 39.2045 13.1999C39.2045 8.63993 42.1445 5.45994 46.5241 5.45994C50.3641 5.45994 52.4941 7.70994 53.2741 10.4999L50.2741 11.2199C49.8841 9.35993 48.7441 7.82994 46.5241 7.82994C44.1541 7.82994 42.3245 9.71993 42.3245 13.1999C42.3245 16.7399 44.0941 18.6299 46.5841 18.6299C48.6541 18.6299 49.9441 17.3399 50.4241 15.2399L53.3941 15.9599C52.4941 18.7499 50.4241 21 46.4941 21ZM54.9887 20.64V0H57.9587V7.88994H57.9887C58.9187 6.44994 60.4487 5.45994 62.6987 5.45994C65.9987 5.45994 67.9487 7.43994 67.9487 11.0399V20.64H64.9787V12.3299C64.9787 9.65993 64.3787 7.94993 61.8887 7.94993C59.3987 7.94993 57.9587 9.95993 57.9587 12.3599V20.64H54.9887ZM75.0137 21C72.3437 21 69.9437 19.3799 69.9437 16.6199C69.9437 13.9199 71.8337 12.6899 75.0437 12.0599L77.0837 11.6399C78.6737 11.3099 79.4237 10.9799 79.4237 9.74993C79.4237 8.51993 78.4037 7.64993 76.6037 7.64993C74.6537 7.64993 73.3937 8.84993 73.2737 10.8299L70.2137 10.5599C70.4237 7.37994 72.9737 5.45994 76.6337 5.45994C80.4137 5.45994 82.4237 7.28994 82.4237 10.4099V20.64H79.5737V18.8999H79.5437C78.8537 20.0399 77.3237 21 75.0137 21ZM75.7937 18.8699C77.8937 18.8699 79.5437 17.4899 79.5437 15.0299V13.2299C76.4237 13.7399 74.9537 14.1599 74.0537 14.7299C73.3637 15.1499 72.9737 15.7499 72.9737 16.5599C72.9737 17.9399 74.1137 18.8699 75.7937 18.8699ZM85.1968 20.64V5.81994H88.1668V20.64H85.1968ZM85.1968 3.50994V0H88.1668V3.50994H85.1968ZM91.0571 20.64V5.81994H93.9971V7.91993H94.0271C94.8671 6.62994 96.5171 5.45994 98.7671 5.45994C102.067 5.45994 104.017 7.43994 104.017 11.0399V20.64H101.047V12.3299C101.047 9.65993 100.447 7.94993 97.9571 7.94993C95.4671 7.94993 94.0271 9.95993 94.0271 12.3599V20.64H91.0571Z" fill="#666666"/>
</svg>
