<svg width="50" height="19" viewBox="0 0 50 19" fill="none" xmlns="http://www.w3.org/2000/svg">
<path d="M12.0701 9.24653L18.9299 0.0337958L15.758 0.0405549H14.8726C14.0318 0.0540732 13.3057 0.473141 12.6943 1.29776L9.28662 5.90075L5.87898 1.30452C5.25478 0.466382 4.52866 0.0540732 3.70064 0.0540732H1.02548C0.566879 0.0540732 0.343949 0.256848 0.343949 0.662398C0.343949 0.865173 0.433121 1.08147 0.605096 1.31128L6.52229 9.25329L0.261147 17.7563C0.089172 17.9929 0 18.2092 0 18.4052C0.0509554 18.804 0.286624 19 0.700637 19H3.35032C4.17834 19 4.90446 18.5877 5.51592 17.7563L9.30573 12.6126L13.1083 17.7428C13.7261 18.5674 14.4459 18.9797 15.2739 18.9797L19.293 18.973L12.0701 9.24653ZM46.8917 18.9392L49.6561 15.2014L42.8599 15.2081C40.6306 15.2081 39.1083 14.7823 38.3057 13.9171C37.5032 13.0519 37.0955 11.5784 37.0955 9.48986C37.0892 7.40128 37.4904 5.92102 38.2994 5.04909C39.1083 4.17716 40.6242 3.74458 42.8535 3.74458L50 3.73782L47.2102 0L42.707 0.00675906C39.1083 0.0135182 36.4904 0.777303 34.8535 2.30487C34.1083 3.00107 33.5414 3.88652 33.1338 4.94771C33.586 6.23871 33.8089 7.75276 33.8153 9.48986C33.8217 11.227 33.5924 12.741 33.1465 14.032C33.5541 15.0864 34.121 15.9719 34.8726 16.6681C36.5159 18.1889 39.1338 18.9459 42.7325 18.9459L46.8917 18.9392ZM32.7261 6.26574C32.6242 5.81964 32.4841 5.38029 32.3185 4.94771C31.9108 3.89328 31.344 3.00107 30.5924 2.31163C28.9554 0.784063 26.3312 0.0202775 22.7325 0.0270366L19.8854 0.0337958L17.1019 3.77161L22.5987 3.76485C24.828 3.76485 26.3503 4.19068 27.1529 5.06261C27.9618 5.92778 28.3631 7.40804 28.3631 9.49662C28.3631 11.5852 27.9682 13.0655 27.1592 13.9306C26.3503 14.7958 24.8408 15.2284 22.6115 15.2284L17.4713 15.2351L20.242 18.9662H22.7516C26.3503 18.9594 28.9682 18.1957 30.6115 16.6748C31.3567 15.9787 31.9236 15.0932 32.3312 14.0388C32.4968 13.6129 32.6306 13.1736 32.7325 12.7207C32.9618 11.6596 33.0701 10.5781 33.0637 9.49662C33.0701 8.4084 32.9554 7.32693 32.7261 6.26574Z" fill="#666666"/>
<path d="M13.0573 9.26005L16.6242 14.0591L16.6115 4.46105L13.0573 9.26005Z" fill="#666666"/>
</svg>
