<svg
  xmlns="http://www.w3.org/2000/svg"
  viewBox="0 0 332 65"
  role="image"
  fill="#ffffff"
  aria-labelledby="title"
>
  <title id="title">spanDEX</title>
  <path d="M14.784 52.448V44.176C14.784 41.36 14.256 40.304 12.672 38.632L4.312 30.712C1.672 28.336 0 25.96 0 21.12V11.176C0 4.312 4.752 0 11.968 0C19.272 0 24.024 4.312 24.024 11.176V23.936H15.048V12.144C15.048 9.68 14.168 8.184 12.144 8.184C10.12 8.184 9.24 9.68 9.24 12.144V18.832C9.24 21.648 9.768 22.704 11.352 24.376L19.712 32.296C22.352 34.672 24.024 37.048 24.024 41.888V53.416C24.024 60.28 19.096 64.592 11.88 64.592C4.576 64.592 0 60.28 0 53.416V39.6H8.976V52.448C8.976 54.912 9.856 56.408 11.88 56.408C13.904 56.408 14.784 54.912 14.784 52.448Z" />
  <path d="M41.5841 0.703996C48.8881 0.703996 52.8481 4.928 52.8481 11.792V24.552C52.8481 31.416 48.8881 35.64 41.5841 35.64H37.3601V63.888H28.1201V0.703996H41.5841ZM40.5281 8.8H37.3601V27.544H40.5281C42.5521 27.544 43.6081 26.224 43.6081 23.76V12.584C43.6081 10.12 42.5521 8.8 40.5281 8.8Z" />
  <path d="M59.4516 0.703996H71.4196L79.2516 63.888H70.2756L68.7796 49.104H61.7396L60.2436 63.888H51.6196L59.4516 0.703996ZM64.2916 24.728L62.6196 41.272H67.8996L66.2276 24.728L65.3476 15.224H65.1716L64.2916 24.728Z" />
  <path d="M90.5348 22.44H90.3588L90.5348 34.144V63.888H82.1748V0.703996H92.1188L99.4228 36.168H99.5988L99.4228 23.144V0.703996H107.783V63.888H99.7748L90.5348 22.44Z" />
  <path d="M115.763 63.888V0.703996H148.059C170.235 0.703996 184.227 13.024 184.227 32.296C184.227 51.568 170.235 63.888 148.059 63.888H115.763ZM128.435 52.8H148.059C162.491 52.8 171.027 44.704 171.027 32.296C171.027 19.8 162.491 11.792 148.059 11.792H128.435V52.8Z" />
  <path d="M191.731 0.703996H252.891V11.88H204.491V25.96H247.875V37.048H204.491V52.712H252.891V63.888H191.731V0.703996Z" />
  <path d="M273.313 0.703996L293.113 22.528L313.001 0.703996H328.841L301.033 30.976L331.305 63.888H315.025L292.937 39.512L270.585 63.888H254.745L284.929 31.064L257.121 0.703996H273.313Z" />
</svg>