<svg xmlns="http://www.w3.org/2000/svg" width="180" height="180" viewBox="0 0 180 180" fill="none">
<path d="M56.7123 146.594V33.2877H114.628C154.396 33.2877 179.487 55.3808 179.487 89.9408C179.487 124.501 154.396 146.594 114.628 146.594H56.7123ZM79.4367 126.71H114.628C140.508 126.71 155.816 112.192 155.816 89.9408C155.816 67.5321 140.508 53.1715 114.628 53.1715H79.4367V126.71Z" fill="#0F0F0F"/>
<path d="M26.5118 126.109V111.275C26.5118 106.225 25.5649 104.331 22.7244 101.333L7.7326 87.1299C2.99836 82.8691 0 78.6082 0 69.9288V52.0965C0 39.7874 8.52165 32.0548 21.4619 32.0548C34.56 32.0548 43.0816 39.7874 43.0816 52.0965V74.9786H26.9852V53.8323C26.9852 49.4137 25.4071 46.731 21.7775 46.731C18.1479 46.731 16.5699 49.4137 16.5699 53.8323V65.8258C16.5699 70.8756 17.5167 72.7693 20.3573 75.7677L35.349 89.9704C40.0833 94.2312 43.0816 98.4921 43.0816 107.172V127.844C43.0816 140.153 34.2444 147.886 21.3041 147.886C8.20603 147.886 0 140.153 0 127.844V103.069H16.0964V126.109C16.0964 130.527 17.6745 133.21 21.3041 133.21C24.9337 133.21 26.5118 130.527 26.5118 126.109Z" fill="#0F0F0F"/>
</svg>